<svg width="148" height="72" viewBox="0 0 148 72" fill="none" xmlns="http://www.w3.org/2000/svg">
<path d="M21.98 29.3654L22.03 29.2554C22.03 29.3154 21.98 29.3654 21.98 29.3654ZM21.88 29.5254C21.88 29.4754 21.93 29.4154 21.99 29.3654C21.93 29.4754 21.88 29.5254 21.88 29.5254ZM11.4 30.4754C11.51 30.5254 11.61 30.5854 11.72 30.6854L11.4 30.4754ZM9.91999 30.5854C9.70999 30.7454 9.55 30.9554 9.5 30.9554C9.61 30.9554 9.75999 30.7454 9.91999 30.5854ZM21.35 23.6054L21.14 24.1354C21.14 24.0854 21.19 23.9754 21.19 23.8754L21.35 23.6054ZM17.91 22.9654C17.7 23.5954 17.43 24.1854 17.12 24.7654C17.38 23.9754 17.54 23.1754 17.91 22.4354C18.23 21.8554 18.6 21.1154 18.86 20.4254C18.6 21.2754 18.17 22.1754 17.91 22.9654ZM8.55 42.4254C9.87 41.2654 11.14 40.0454 12.36 38.7754C12.25 39.4654 10.61 40.6254 10.03 41.1554C9.33999 41.8454 8.55 42.5354 7.76 43.1654H7.70999L8.55 42.4254ZM16.96 27.7754C16.85 28.0354 16.54 29.2554 16.38 29.4154C16.38 29.4654 16.33 29.5254 16.27 29.5254C16.69 28.9954 16.43 28.3054 16.64 27.6754C16.75 27.3554 17.27 26.7754 17.38 26.3554C17.38 26.7754 17.12 27.5154 16.96 27.7754ZM21.4 23.4454C21.4 23.3954 21.4 23.2854 21.45 23.2354V23.1854C21.5 23.0254 21.56 22.9754 21.56 22.9754V22.9254C22.78 19.5354 24.1 16.1554 26 13.0854C26.48 12.2954 27.85 9.85539 29.07 10.5454C29.55 10.8054 29.65 11.4954 29.65 11.9754C29.86 15.1454 27.32 18.9054 25.74 21.4454C23.89 24.4054 21.83 27.3154 19.66 30.0154L20.82 28.7954L21.88 27.4754L19.18 30.9654L18.81 31.4454L18.6 31.6554C18.65 31.3354 18.92 31.0254 19.18 30.6554C19.07 30.7654 18.97 30.8654 18.92 30.9754C19.61 28.7054 20.35 26.4254 21.14 24.1554C21.09 24.2054 21.14 24.1054 21.19 23.8954L21.35 23.6354C21.35 23.5454 21.35 23.4954 21.4 23.4454ZM12.88 35.6554C12.83 35.8154 12.83 35.9154 12.83 35.9154C12.62 37.1854 12.62 38.2954 11.72 39.1954C10.93 40.0454 10.08 40.8354 9.23 41.6254C8.44 42.3654 6.52999 44.5354 5.31999 44.4254C3.83999 44.2654 4.95 40.8854 5.69 38.8154C4.9 40.9354 3.63 44.3654 5.37 44.4754C5.85 44.5254 6.64 44.1054 7.33 43.5254C6.7 44.1054 5.64 44.9054 5 44.5854C3.78 44.0554 4.84 41.0454 5.05 40.1954C5.74 37.7654 6.74 35.4354 7.91 33.2154C8.49 32.1054 9.34 30.3054 10.45 30.2054L10.19 30.3754C10.24 30.3254 10.3 30.3254 10.35 30.3254C10.72 30.2154 11.09 30.4854 11.35 30.6954C12.04 31.1754 12.46 32.0754 12.94 32.7554C13.47 33.6054 13.1 34.5054 12.89 35.4554V35.6554H12.88ZM32.35 32.1654V32.1154C32.03 30.3654 29.65 33.2754 29.34 33.5454C27.81 35.2354 26.38 37.0854 25 38.9354C23.62 40.8354 22.3 42.7454 20.87 44.6454C20.18 45.5954 19.49 46.4954 18.7 47.3454C18.44 47.6654 17.8 48.5654 17.32 48.5654C15.47 48.5654 16.9 41.1054 17.11 39.9454C17.43 37.8854 17.59 35.1354 18.91 33.4954C19.23 33.0754 22.82 28.4754 22.82 28.4754C22.71 28.4254 22.29 28.9554 22.03 29.2654L24.3 26.1954L24.46 25.9854H24.51H24.46L24.88 25.4054C24.93 25.4554 24.88 25.5654 24.83 25.6654L25.31 25.1354L26.69 23.3354C27.69 21.9054 28.65 20.3754 29.55 18.8954C30.98 16.4654 32.94 12.9754 31.88 10.0054C31.09 7.83539 28.18 7.41539 26.22 8.15539C24.79 8.68539 23.58 9.79539 22.57 10.9554C22.04 11.6454 21.51 12.3854 21.04 13.1754C20.88 13.3854 20.19 15.0754 20.04 15.2954H20.09C19.77 15.8754 19.46 16.4554 19.24 17.0454C19.35 16.6254 19.61 15.7754 19.82 15.6154C19.4 15.9354 19.03 17.4654 18.92 17.6254C16.91 22.0154 15.16 26.4554 13.9 31.1154C12.47 29.4754 10.2 26.6754 7.70999 27.6754C5.64999 28.5254 4.11 30.6854 3.06 32.5954C2.11 34.2854 1.84 36.0354 1.16 37.6754C-0.0600012 40.4754 -0.640003 46.2454 3.49 47.0854C4.76 47.3454 5.92 46.5554 6.93 45.8654C8.73 44.5454 10.42 43.0054 12.01 41.4254C11.75 44.2254 11.16 48.4554 13.44 50.6854C16.24 53.5454 19.05 49.6854 20.74 47.5654C22.91 44.8154 24.6 41.7454 26.77 39.1054C27.83 37.8354 28.89 36.5654 30 35.4054C30.81 34.5454 32.51 33.4954 32.35 32.1654Z" fill="#4E3514"/>
<path d="M49.38 29.3654L49.43 29.2554C49.43 29.3154 49.38 29.3654 49.38 29.3654ZM49.27 29.5254C49.27 29.4754 49.32 29.4154 49.38 29.3654C49.32 29.4754 49.27 29.5254 49.27 29.5254ZM38.8 30.4754C38.91 30.5254 39.01 30.5854 39.12 30.6854L38.8 30.4754ZM37.32 30.5854C37.11 30.7454 36.95 30.9554 36.9 30.9554C37 30.9554 37.16 30.7454 37.32 30.5854ZM48.74 23.6054L48.53 24.1354C48.53 24.0854 48.58 23.9754 48.58 23.8754L48.74 23.6054ZM45.3 22.9654C45.09 23.5954 44.82 24.1854 44.51 24.7654C44.77 23.9754 44.93 23.1754 45.3 22.4354C45.62 21.8554 45.99 21.1154 46.25 20.4254C45.99 21.2754 45.57 22.1754 45.3 22.9654ZM35.94 42.4254C37.26 41.2654 38.53 40.0454 39.75 38.7754C39.64 39.4654 38 40.6254 37.42 41.1554C36.73 41.8454 35.94 42.5354 35.15 43.1654H35.1L35.94 42.4254ZM44.35 27.7754C44.24 28.0354 43.93 29.2554 43.77 29.4154C43.77 29.4654 43.72 29.5254 43.66 29.5254C44.08 28.9954 43.82 28.3054 44.03 27.6754C44.14 27.3554 44.66 26.7754 44.77 26.3554C44.78 26.7754 44.51 27.5154 44.35 27.7754ZM48.8 23.4454C48.8 23.3954 48.8 23.2854 48.85 23.2354V23.1854C48.9 23.0254 48.96 22.9754 48.96 22.9754V22.9254C50.18 19.5354 51.5 16.1554 53.4 13.0854C53.88 12.2954 55.25 9.85539 56.47 10.5454C56.95 10.8054 57.05 11.4954 57.05 11.9754C57.26 15.1454 54.72 18.9054 53.14 21.4454C51.29 24.4054 49.23 27.3154 47.06 30.0154L48.22 28.7954L49.28 27.4754L46.58 30.9654L46.21 31.4454L46 31.6554C46.05 31.3354 46.32 31.0254 46.58 30.6554C46.47 30.7654 46.37 30.8654 46.32 30.9754C47.01 28.7054 47.75 26.4254 48.54 24.1554C48.49 24.2054 48.54 24.1054 48.59 23.8954L48.75 23.6354C48.74 23.5454 48.74 23.4954 48.8 23.4454ZM40.28 35.6554C40.23 35.8154 40.23 35.9154 40.23 35.9154C40.02 37.1854 40.02 38.2954 39.12 39.1954C38.33 40.0454 37.48 40.8354 36.63 41.6254C35.84 42.3654 33.93 44.5354 32.72 44.4254C31.24 44.2654 32.35 40.8854 33.09 38.8154C32.3 40.9354 31.03 44.3654 32.77 44.4754C33.25 44.5254 34.04 44.1054 34.73 43.5254C34.1 44.1054 33.04 44.9054 32.4 44.5854C31.18 44.0554 32.24 41.0454 32.45 40.1954C33.14 37.7654 34.14 35.4354 35.31 33.2154C35.89 32.1054 36.74 30.3054 37.85 30.2054L37.58 30.3754C37.63 30.3254 37.69 30.3254 37.74 30.3254C38.11 30.2154 38.48 30.4854 38.74 30.6954C39.43 31.1754 39.85 32.0754 40.33 32.7554C40.86 33.6054 40.49 34.5054 40.28 35.4554V35.6554ZM59.74 32.1654V32.1154C59.42 30.3654 57.04 33.2754 56.73 33.5454C55.2 35.2354 53.77 37.0854 52.39 38.9354C51.01 40.8354 49.69 42.7454 48.26 44.6454C47.57 45.5954 46.88 46.4954 46.09 47.3454C45.83 47.6654 45.19 48.5654 44.71 48.5654C42.86 48.5654 44.29 41.1054 44.5 39.9454C44.82 37.8854 44.98 35.1354 46.3 33.4954C46.62 33.0754 50.21 28.4754 50.21 28.4754C50.1 28.4254 49.68 28.9554 49.42 29.2654L51.69 26.1954L51.85 25.9854H51.9H51.85L52.27 25.4054C52.32 25.4554 52.27 25.5654 52.22 25.6654L52.7 25.1354L54.08 23.3354C55.08 21.9054 56.04 20.3754 56.94 18.8954C58.37 16.4654 60.33 12.9754 59.27 10.0054C58.48 7.83539 55.57 7.41539 53.61 8.15539C52.18 8.68539 50.97 9.79539 49.96 10.9554C49.43 11.6454 48.9 12.3854 48.43 13.1754C48.27 13.3854 47.58 15.0754 47.43 15.2954H47.48C47.16 15.8754 46.85 16.4554 46.63 17.0454C46.74 16.6254 47 15.7754 47.21 15.6154C46.79 15.9354 46.42 17.4654 46.31 17.6254C44.3 22.0154 42.55 26.4554 41.29 31.1154C39.86 29.4754 37.59 26.6754 35.1 27.6754C33.04 28.5254 31.5 30.6854 30.45 32.5954C29.5 34.2854 29.23 36.0354 28.55 37.6754C27.33 40.4754 26.75 46.2454 30.88 47.0854C32.15 47.3454 33.31 46.5554 34.32 45.8654C36.12 44.5454 37.81 43.0054 39.4 41.4254C39.14 44.2254 38.55 48.4554 40.83 50.6854C43.63 53.5454 46.44 49.6854 48.13 47.5654C50.3 44.8154 51.99 41.7454 54.16 39.1054C55.22 37.8354 56.28 36.5654 57.39 35.4054C58.21 34.5454 59.9 33.4954 59.74 32.1654Z" fill="#4E3514"/>
<path d="M58.74 36.2954C58.69 36.4054 58.69 36.4554 58.69 36.4554C58.06 37.9354 58 39.9454 57.69 41.5354C57.64 41.9054 57.53 42.2254 57.53 42.5954V42.4354L57.37 44.1254C57.48 42.2254 57.69 40.2654 58.06 38.4154V38.4654C58.22 37.2454 58.48 36.1354 58.69 36.1354C58.79 36.0854 58.79 36.2454 58.74 36.2954ZM68.73 8.94539C69.26 7.94539 70.21 7.09539 70.74 6.14539C69.63 8.36539 68.25 10.3754 67.09 12.4954C67.09 12.4454 67.09 12.3354 67.14 12.2854C67.62 11.1154 68.15 10.0554 68.73 8.94539ZM70.43 12.6554C71.49 10.1154 72.55 7.52539 74.03 5.14539C74.4 4.56539 76.78 1.38539 76.67 4.19539V4.24539C76.56 7.20539 74.66 10.3254 73.39 12.8654L71.17 16.9954C70.43 18.2654 69.16 19.8554 68.74 21.2254C69.06 20.3754 70.01 19.1654 70.49 18.3654C71.28 17.0454 71.97 15.7254 72.71 14.3954C73.93 12.0654 75.25 9.63539 76.15 7.09539C73.77 14.1854 69.33 20.7954 65.41 27.0854C66.93 22.4354 68.47 17.3554 70.43 12.6554ZM77.04 31.5854C76.3 32.3754 75.82 33.7054 75.24 34.6554C74.34 36.1854 73.44 37.6654 72.49 39.1554C70.69 42.0154 68.89 44.9254 66.72 47.5154C65.82 48.6254 63.92 51.3254 62.12 51.1154C60.8 50.9054 60.8 48.6254 60.8 47.6254C60.8 46.7754 60.85 45.9354 60.96 45.1354C61.01 44.6554 61.44 43.0754 61.17 42.6454L60.75 44.2354C60.8 43.6054 60.91 42.9154 61.07 42.2754C61.02 42.1654 61.49 40.6854 61.6 40.2154C61.86 39.1554 62.13 38.0954 62.45 37.0454C62.71 35.9854 62.98 34.9854 63.3 33.9754C63.56 33.0254 63.93 32.5454 64.52 31.8054C66.9 28.8454 69.07 25.6154 71.08 22.3954C71.82 21.1754 72.3 20.1254 73.2 19.1154C74.52 17.7354 75.42 15.6754 76.27 13.9854C77.7 11.2354 79.6 7.42539 79.28 4.20539V3.94539L79.23 3.89539C78.91 1.83539 77.01 -0.604609 74.68 0.135391C73.46 0.505391 72.56 1.77539 71.82 2.67539L70.58 4.29539C70.32 4.61539 69.95 5.40539 69.68 5.82539L69.73 5.77539L68.04 8.68539L68.46 7.78539C68.2 7.73539 67.03 10.0054 66.87 10.2754C66.29 11.2754 65.76 12.2854 65.28 13.2854C64.22 15.4054 63.16 17.5654 62.48 19.8454C61.74 22.1154 60.89 24.3454 60.1 26.6154C59.68 27.8354 59.25 29.1054 58.88 30.3154C58.56 31.3154 57.82 32.9554 57.98 34.0154H58.14C57.98 34.3854 57.88 34.7554 57.77 35.1254C57.82 34.8054 57.82 34.4354 57.88 34.3354C57.62 34.7054 57.67 35.9754 57.62 36.0854C56.93 38.9454 56.14 41.7954 55.93 44.7554C55.77 47.5554 55.77 51.2654 57.99 53.3254C60.48 55.5954 63.33 54.0654 65.39 52.1054C67.82 49.7254 69.89 46.9254 71.79 44.1754C73.54 41.6354 74.91 38.9354 76.5 36.3954C77.13 35.3354 77.82 34.2754 78.14 33.1154C78.36 32.2754 78.25 30.3154 77.04 31.5854Z" fill="#4E3514"/>
<path d="M92.11 50.2554C92.06 50.2554 92 50.2054 91.95 50.1454L92.11 50.2554ZM103.64 16.9354L104.17 15.7754C104.01 16.1954 103.8 16.6154 103.64 16.9354ZM98.88 26.9354C98.51 27.9354 98.09 28.8954 97.66 29.8454C98.08 28.8454 98.45 27.7854 98.93 26.7254C98.88 26.8254 98.88 26.8754 98.88 26.9354ZM104.33 15.4054L105.6 12.9754C105.33 13.0254 104.85 14.1854 104.33 15.4054ZM100.83 20.6354C98.45 25.6554 96.65 31.0554 94.75 36.2954C93.85 38.6754 93 41.1654 92.42 43.6454L92.16 44.6454C92.53 42.7454 92.95 40.8854 93.48 39.0354C94.64 34.9654 96.12 30.9454 97.87 27.0854C100.83 20.4754 103.48 13.3854 107.71 7.40539C104.85 11.4854 102.95 16.1454 100.83 20.6354ZM110.88 17.5754C110.83 16.8354 110.03 17.4154 109.61 17.4154C107.49 17.5254 105.38 17.5254 103.32 17.6254C103.32 17.5754 103.43 17.3654 103.58 17.0454C103.37 17.4154 103.21 17.6254 103.05 17.6254C104.64 14.3954 106.33 11.1754 108.34 8.21539C108.29 8.32539 107.49 9.64539 107.55 9.64539C107.71 9.69539 109.67 7.00539 109.72 6.63539C109.72 6.42539 109.24 6.95539 109.24 6.89539C109.56 6.57539 110.09 6.31539 110.24 5.89539C110.61 4.83539 109.5 4.36539 108.71 4.20539C107.07 3.88539 105.22 4.09539 104.16 5.47539C103.16 6.69539 102.41 8.11539 101.78 9.54539C101.46 10.1754 101.04 10.3354 100.62 10.9254C99.99 11.8254 99.56 12.8854 99.09 13.8854C98.67 14.7854 98.24 15.7354 97.87 16.6854C97.66 17.1654 97.66 17.5354 97.18 17.6854C96.7 17.8954 95.8 17.7354 95.28 17.7954C93.22 18.0554 91.21 17.9554 89.14 18.1654C88.08 18.2154 87.02 18.2154 86.02 18.5854C85.81 18.6354 84.64 18.9054 84.54 19.0654C84.22 19.6454 85.49 19.6954 85.76 19.7554C87.77 20.0154 90.31 20.2354 92.32 19.8654C93.7 19.6054 95.12 19.7054 96.6 19.6054C95.86 21.1954 95.28 22.8854 94.7 24.5754L94.07 26.4254C93.86 27.0054 93.17 28.1154 93.17 28.7554C93.17 28.8654 93.33 28.5954 93.43 28.3354C93.17 29.1254 92.85 29.9254 92.64 30.7154C92.64 30.6654 92.8 30.0254 92.75 30.0254C92.49 30.0254 91.43 33.2554 91.32 33.5154C90.79 35.1054 90.21 36.6854 89.94 38.3854C89.62 40.0754 89.2 41.7154 88.83 43.3554C88.62 44.2054 88.41 44.9954 88.3 45.8454C88.19 46.2654 88.09 46.7454 88.09 47.1654C88.09 47.2754 88.09 47.9554 88.2 47.7454L88.09 48.8054V48.0154C87.77 48.3854 88.09 50.0754 88.14 50.3954C88.35 51.4554 88.88 52.4054 89.83 53.0354C90.68 53.6654 92 54.2554 93 53.7754C94.32 53.1454 95.43 51.6554 96.28 50.6054C98.13 48.4354 99.82 46.1654 101.52 43.8854C103.05 41.7654 104.64 39.7054 105.96 37.4854C106.7 36.2154 108.13 35.0554 108.6 33.6254C108.86 32.9354 108.71 32.0954 107.86 32.2454C107.17 32.4054 106.22 34.2554 105.8 34.7854C103.9 37.1654 102.1 39.5954 100.19 41.9754L97.12 45.7354C96.64 46.2654 96.17 46.8454 95.64 47.3754C95.43 47.6354 94.11 48.6954 94.16 49.0154C94.16 49.1254 94.74 48.6454 94.95 48.4854C94.69 48.8054 94.37 49.0654 94.1 49.3354C94.15 49.2854 93.04 49.9154 92.88 49.8154C91.88 49.3954 92.77 46.3254 92.93 45.5854C93.88 41.3054 95.31 36.9654 96.74 32.8354C97.59 30.5654 98.43 28.3954 99.38 26.1754C99.86 25.0654 100.33 23.9054 100.86 22.7854L101.6 20.7754L101.02 21.9354C101.39 20.9854 101.92 19.5554 102.24 19.5054L102.08 19.8254C102.19 19.6654 102.29 19.5654 102.4 19.5054C102.98 19.1354 104.46 19.5054 105.15 19.5054C105.63 19.5054 106.21 19.5554 106.68 19.3954C107 19.2854 106.89 19.1354 107.26 19.0254C107.89 18.9154 108.69 19.3454 109.38 19.1354C110.01 18.9754 110.91 18.3954 110.86 17.6554V17.5754H110.88Z" fill="#4E3514"/>
<path d="M118.29 34.8654C118.29 34.6554 118.34 34.4954 118.5 34.3854C118.39 34.5454 118.34 34.7054 118.29 34.8654ZM110.04 40.0454C109.72 38.5154 110.83 36.3954 111.42 34.9654C110.67 37.0354 109.93 39.5754 110.04 40.0454ZM122.62 33.2254C122.51 33.5454 122.46 33.9654 122.3 34.2254C122.3 34.2754 122.25 34.3354 122.19 34.3854C122.24 34.3354 122.24 34.2754 122.24 34.2254C121.82 32.9054 123.4 31.2154 123.93 29.8854C123.52 31.0554 122.99 32.1154 122.62 33.2254ZM130.66 32.1654C130.5 31.1654 128.07 33.9654 127.96 34.0654C126.43 35.7054 124.95 37.5054 123.15 38.9354C122.3 39.5654 121.93 39.9354 121.99 38.6754C122.04 37.5654 122.47 36.4054 122.78 35.3954C122.94 34.8654 124 32.8554 123.68 32.4854C123.63 32.4354 123.52 32.5954 123.42 32.6954C124.16 31.2154 125.96 28.6754 123.58 27.9854C120.88 27.2454 119.51 30.1554 118.34 31.8954C117.23 33.4854 116.17 35.0154 114.9 36.4454C113.95 37.5554 112.47 39.6754 110.93 40.0954C109.5 40.5754 110.45 38.2454 110.67 37.4554C110.83 37.0354 112.73 32.1154 112.84 32.1654C112.73 32.1654 112.63 32.2154 112.52 32.3754C113.1 31.1054 113.74 29.8354 114.42 28.6154C114.26 28.9354 114.1 29.4654 114.1 29.4654C114.36 29.5154 115.63 26.9254 115.53 26.9254C115.42 26.9754 115.32 27.0854 115.21 27.2454C115.63 26.5054 116.16 26.1354 115.21 25.3954C114.26 24.6554 112.57 24.4954 111.61 25.3454C110.45 26.2954 109.71 27.9854 109.12 29.3154C108.75 30.0554 108.12 30.4754 107.74 31.3254C107 32.9654 106.58 34.6054 106.15 36.2954C105.73 37.9354 105.46 39.6254 105.73 41.3154C105.89 42.0554 106.15 42.9054 106.73 43.4354C106.89 43.5454 108.42 44.1254 108.32 43.7554C108.21 43.7554 108.11 43.7554 108.06 43.7054C108.64 43.7054 109.22 43.4454 109.75 43.1254C109.8 43.1754 109.33 43.3854 109.33 43.4454C109.86 44.1354 113.88 40.0554 114.25 39.5854C115.57 37.8954 116.89 36.2554 118.27 34.6154C117.58 36.4654 116.42 39.0054 117.53 41.0154C118.16 42.0754 119.38 42.6554 120.54 42.5454C123.03 42.3854 125.25 39.6854 126.78 38.0454C127.78 36.9354 128.79 35.7754 129.53 34.5054C129.87 33.9654 130.72 32.8054 130.66 32.1654Z" fill="#4E3514"/>
<path d="M133.25 33.1754C133.2 33.2254 133.2 33.2254 133.2 33.2854C133.2 33.1754 133.2 33.0754 133.25 32.9654V33.1754ZM128.6 36.6154C128.55 36.7754 128.44 36.9854 128.44 37.0954C128.44 36.8354 128.44 36.5654 128.7 36.4654L128.6 36.6154ZM132.3 36.3454C132.51 35.4954 132.78 34.6554 133.04 33.8054L132.3 36.3454ZM128.49 37.6154C128.28 37.9854 128.28 38.6754 128.28 39.2554C128.23 38.6254 128.23 37.9354 128.44 37.2954C128.44 37.2954 128.6 37.5154 128.49 37.6154ZM130.45 31.4254C130.34 31.9554 130.19 32.5354 129.97 33.0154C129.81 33.3854 129.34 33.7054 129.28 33.9654C129.39 33.0654 130.07 32.1654 130.5 31.1654C130.5 31.2654 130.45 31.3754 130.45 31.4254ZM145.95 35.2854C146.43 34.5954 148.33 32.5854 147.54 31.6854C146.48 30.6254 143.73 35.0154 143.31 35.5454C142.46 36.6554 141.56 37.7154 140.72 38.7754C140.24 39.3554 139.77 39.9354 139.24 40.4654C139.13 40.5754 138.13 41.8454 138.24 41.8454C138.4 41.7954 138.56 41.6854 138.72 41.5854C137.82 42.5354 136.6 43.3854 135.49 44.2254C134.75 44.7554 133.32 45.9154 132.42 45.2854C132.05 45.0754 131.94 44.5454 131.84 44.1754C131.47 42.5354 131.73 40.5754 132 38.8854C132.58 35.3454 133.75 31.8554 135.17 28.5154C135.86 26.9854 136.55 25.4454 137.76 24.2854C137.87 24.1754 138.08 24.3954 138.13 24.3354C138.24 24.2854 137.81 24.1254 137.76 24.1754C137.18 24.4954 136.81 25.1254 136.49 25.7054C135.54 27.2354 134.8 28.9354 134.16 30.6254C134.64 29.3054 135.16 27.9854 135.8 26.6554C136.17 25.9654 136.59 24.8554 137.28 24.3254C139.08 22.8954 138.39 27.6054 138.18 28.2954C138.18 28.2454 138.39 27.0754 138.34 27.0754C138.23 27.0754 137.49 29.7754 137.49 29.7754L137.75 29.5654C137.49 29.9854 136.96 30.3054 137.64 30.7854C138.49 31.3654 140.13 30.3654 140.5 29.6254C140.87 28.8354 140.98 27.7754 141.03 26.9854C141.14 25.6054 140.77 24.8154 140.29 23.7554C139.76 22.6454 139.29 21.9554 137.86 21.7454C136.7 21.5854 135.64 22.0654 134.74 22.7454C133.42 23.6954 132.41 24.9154 131.57 26.2854C131.36 26.6554 129.45 30.5154 129.51 30.5654L129.72 30.3054C129.46 30.8854 129.3 31.4654 129.09 31.9954C129.04 31.9954 129.2 31.5154 129.14 31.5154C128.82 31.4654 127.87 34.3754 127.82 34.6354C127.45 35.7454 127.19 36.8554 127.13 38.0254C127.08 39.2954 126.87 40.5654 126.81 41.8854C126.81 42.5754 126.81 43.3154 126.92 44.0054C126.92 44.2154 127.34 45.3254 127.34 45.0054L127.6 45.9054C127.55 45.8554 127.34 45.3254 127.34 45.3254C127.08 45.6454 128.5 47.7054 128.82 48.0254C129.24 48.5054 129.88 48.7154 130.51 48.8154C132.63 49.0754 134.64 47.8654 136.17 46.5954C138.81 44.3754 141.41 41.6254 143.36 38.7654C144.15 37.5654 145.05 36.4554 145.95 35.2854Z" fill="#4E3514"/>
<path d="M3.98 66.4754C3.98 65.9254 3.78 65.4754 3.39 65.1154C3.01 64.7654 2.55 64.5954 2 64.5954H0V70.8254H0.640003V68.3654H2C2.55 68.3654 3.02 68.1954 3.39 67.8454C3.78 67.4654 3.98 67.0254 3.98 66.4754ZM0.650002 67.7354V65.2054H2.1C2.48 65.2054 2.78 65.3254 3.01 65.5554C3.23 65.7954 3.35 66.0854 3.35 66.4554C3.35 66.8354 3.23 67.1354 2.99 67.3854C2.75 67.6254 2.46 67.7454 2.1 67.7454H0.650002V67.7354Z" fill="#4E3514"/>
<path d="M10.67 66.4754C10.67 65.9454 10.47 65.4854 10.08 65.1254C9.7 64.7754 9.24 64.5954 8.69 64.5954H6.69V70.8254H7.33V68.3654H8.07L9.9 70.8254H10.76L8.84 68.3654C9.33 68.3354 9.74 68.1654 10.08 67.8454C10.47 67.4754 10.67 67.0254 10.67 66.4754ZM7.34 67.7454V65.2054H8.79C9.17 65.2054 9.47 65.3254 9.7 65.5654C9.92 65.8054 10.04 66.0954 10.04 66.4654C10.04 66.8354 9.92 67.1354 9.68 67.3854C9.44 67.6354 9.15 67.7554 8.79 67.7554H7.34V67.7454Z" fill="#4E3514"/>
<path d="M19.65 67.6854C19.65 67.2454 19.56 66.8354 19.39 66.4354C19.23 66.0554 19 65.7154 18.7 65.4154C18.41 65.1354 18.07 64.9054 17.68 64.7354C17.29 64.5754 16.87 64.4754 16.43 64.4754C15.99 64.4754 15.57 64.5654 15.18 64.7354C14.8 64.8954 14.46 65.1254 14.16 65.4154C13.87 65.7054 13.64 66.0454 13.47 66.4354C13.31 66.8254 13.22 67.2454 13.22 67.6854C13.22 68.1254 13.3 68.5454 13.47 68.9354C13.63 69.3254 13.86 69.6654 14.16 69.9654C14.45 70.2554 14.79 70.4854 15.18 70.6554C15.56 70.8154 15.99 70.9054 16.43 70.9054C16.87 70.9054 17.28 70.8254 17.68 70.6554C18.06 70.4954 18.4 70.2654 18.7 69.9654C18.99 69.6754 19.22 69.3354 19.39 68.9354C19.56 68.5454 19.65 68.1254 19.65 67.6854ZM19.01 67.6854C19.01 68.3954 18.75 69.0054 18.26 69.4954C17.76 69.9954 17.15 70.2454 16.45 70.2454C15.75 70.2454 15.14 69.9954 14.65 69.4954C14.15 69.0054 13.9 68.3954 13.9 67.6854C13.9 66.9854 14.15 66.3854 14.65 65.8854C15.14 65.3954 15.75 65.1354 16.45 65.1354C17.15 65.1354 17.76 65.3954 18.26 65.8854C18.75 66.3854 19.01 66.9954 19.01 67.6854Z" fill="#4E3514"/>
<path d="M26.8 67.7054C26.8 68.4154 26.54 69.0154 26.05 69.4854C25.56 69.9554 24.95 70.1854 24.24 70.1854H23.23V65.2354H24.24C24.95 65.2354 25.56 65.4754 26.05 65.9354C26.55 66.4054 26.8 67.0054 26.8 67.7054ZM27.43 67.7054C27.43 67.2554 27.34 66.8454 27.17 66.4554C27.01 66.0754 26.78 65.7454 26.49 65.4654C26.2 65.1954 25.86 64.9754 25.47 64.8254C25.08 64.6654 24.65 64.5854 24.21 64.5854H22.58V70.8154H24.21C24.65 70.8154 25.07 70.7454 25.47 70.5854C25.85 70.4254 26.19 70.2054 26.49 69.9354C26.77 69.6654 27 69.3354 27.17 68.9554C27.33 68.5754 27.43 68.1654 27.43 67.7054Z" fill="#4E3514"/>
<path d="M34.87 68.7654V64.5954H34.23V68.8554C34.23 69.1154 34.18 69.3254 34.09 69.4954C33.82 70.0054 33.31 70.2654 32.55 70.2654C32.06 70.2654 31.66 70.1554 31.37 69.9354C31.03 69.6854 30.87 69.3354 30.87 68.8554V64.5954H30.23V68.7654C30.23 69.4454 30.45 69.9754 30.89 70.3554C31.3 70.7254 31.86 70.9054 32.56 70.9054C33.25 70.9054 33.8 70.7254 34.22 70.3554C34.65 69.9654 34.87 69.4354 34.87 68.7654Z" fill="#4E3514"/>
<path d="M43.67 68.9154H42.96C42.74 69.3154 42.44 69.6454 42.05 69.8854C41.67 70.1354 41.23 70.2554 40.78 70.2554C40.09 70.2554 39.51 70.0054 39.02 69.4954C38.54 69.0054 38.31 68.4154 38.31 67.7154C38.31 67.0154 38.54 66.4254 39.02 65.9254C39.24 65.6954 39.51 65.5154 39.81 65.3754C40.1 65.2354 40.4 65.1654 40.69 65.1654C40.97 65.1654 41.22 65.2054 41.44 65.2654C42.11 65.4654 42.61 65.8654 42.95 66.4854H43.66C43.42 65.8954 43.05 65.4254 42.52 65.0554C41.99 64.6854 41.41 64.5054 40.78 64.5054C39.91 64.5054 39.18 64.8254 38.57 65.4554C38.29 65.7454 38.07 66.0954 37.91 66.4854C37.75 66.8654 37.67 67.2854 37.67 67.7154C37.67 68.5954 37.96 69.3354 38.57 69.9554C39.17 70.5954 39.91 70.9054 40.78 70.9054C41.41 70.9054 41.99 70.7254 42.53 70.3554C43.05 69.9954 43.43 69.5254 43.67 68.9154Z" fill="#4E3514"/>
<path d="M45.97 65.1654H47.48V70.8054H48.12V65.1654H49.63V64.5754H48.12H47.48H45.97V65.1654Z" fill="#4E3514"/>
<path d="M58.47 67.6854C58.47 67.2454 58.38 66.8354 58.21 66.4354C58.05 66.0554 57.82 65.7154 57.52 65.4154C57.23 65.1354 56.89 64.9054 56.5 64.7354C56.11 64.5754 55.69 64.4754 55.25 64.4754C54.81 64.4754 54.39 64.5654 54 64.7354C53.62 64.8954 53.28 65.1254 52.98 65.4154C52.69 65.7054 52.46 66.0454 52.29 66.4354C52.13 66.8254 52.04 67.2454 52.04 67.6854C52.04 68.1254 52.12 68.5454 52.29 68.9354C52.45 69.3254 52.68 69.6654 52.98 69.9654C53.27 70.2554 53.61 70.4854 54 70.6554C54.38 70.8154 54.81 70.9054 55.25 70.9054C55.69 70.9054 56.1 70.8254 56.5 70.6554C56.88 70.4954 57.22 70.2654 57.52 69.9654C57.81 69.6754 58.04 69.3354 58.21 68.9354C58.38 68.5454 58.47 68.1254 58.47 67.6854ZM57.83 67.6854C57.83 68.3954 57.57 69.0054 57.08 69.4954C56.58 69.9954 55.97 70.2454 55.27 70.2454C54.56 70.2454 53.96 69.9954 53.47 69.4954C52.97 69.0054 52.72 68.3954 52.72 67.6854C52.72 66.9854 52.97 66.3854 53.47 65.8854C53.96 65.3954 54.57 65.1354 55.27 65.1354C55.98 65.1354 56.58 65.3954 57.08 65.8854C57.57 66.3854 57.83 66.9954 57.83 67.6854Z" fill="#4E3514"/>
<path d="M63.13 67.8954C63.94 68.0854 64.49 68.2954 64.78 68.5354C64.98 68.6954 65.08 68.9154 65.08 69.1654C65.08 69.4254 65.03 69.6354 64.92 69.7754C64.65 70.1554 64.15 70.3554 63.45 70.3554C62.48 70.3554 61.93 70.0254 61.81 69.3654H61.06C61.28 70.4154 62.08 70.9454 63.45 70.9454C64.06 70.9454 64.58 70.8154 64.99 70.5454C65.48 70.2254 65.74 69.7454 65.74 69.1254C65.74 68.6154 65.54 68.2154 65.14 67.9454C64.86 67.7454 64.4 67.5654 63.77 67.3954C63.13 67.2354 62.72 67.0954 62.52 66.9954C62.1 66.7854 61.89 66.4954 61.9 66.1054C61.9 65.9054 61.94 65.7254 62.03 65.6054C62.27 65.2454 62.69 65.0654 63.29 65.0654C64.14 65.0654 64.63 65.3354 64.76 65.8754H65.46C65.23 64.9754 64.51 64.5154 63.3 64.5154C62.75 64.5154 62.26 64.6654 61.86 64.9554C61.45 65.2454 61.24 65.6754 61.24 66.2654C61.23 67.0454 61.87 67.5954 63.13 67.8954Z" fill="#4E3514"/>
<path d="M77.7 70.8254L74.97 64.1654L72.23 70.8254H72.93L73.6 69.1354H76.34L77.01 70.8254H77.7ZM73.83 68.5354L74.97 65.6654L76.1 68.5354H73.83Z" fill="#4E3514"/>
<path d="M84.29 66.4754C84.29 65.9454 84.09 65.4854 83.7 65.1254C83.32 64.7754 82.86 64.5954 82.31 64.5954H80.31V70.8254H80.95V68.3654H81.69L83.52 70.8254H84.38L82.46 68.3654C82.95 68.3354 83.36 68.1654 83.7 67.8454C84.09 67.4754 84.29 67.0254 84.29 66.4754ZM80.96 67.7454V65.2054H82.41C82.79 65.2054 83.09 65.3254 83.32 65.5654C83.54 65.8054 83.66 66.0954 83.66 66.4654C83.66 66.8354 83.54 67.1354 83.3 67.3854C83.06 67.6354 82.77 67.7554 82.41 67.7554H80.96V67.7454Z" fill="#4E3514"/>
<path d="M86.64 65.1654H88.15V70.8054H88.79V65.1654H90.3V64.5754H88.79H88.15H86.64V65.1654Z" fill="#4E3514"/>
<path d="M96.72 70.8254V70.2254H93.66V68.0054H96.62V67.4054H93.66V65.1854H96.72V64.5954H93.01V70.8254H96.72Z" fill="#4E3514"/>
<path d="M101.65 67.8954C102.46 68.0854 103.01 68.2954 103.3 68.5354C103.5 68.6954 103.6 68.9154 103.6 69.1654C103.6 69.4254 103.55 69.6354 103.44 69.7754C103.17 70.1554 102.67 70.3554 101.97 70.3554C101 70.3554 100.45 70.0254 100.33 69.3654H99.58C99.8 70.4154 100.6 70.9454 101.97 70.9454C102.58 70.9454 103.1 70.8154 103.51 70.5454C104 70.2254 104.26 69.7454 104.26 69.1254C104.26 68.6154 104.06 68.2154 103.66 67.9454C103.38 67.7454 102.92 67.5654 102.29 67.3954C101.65 67.2354 101.24 67.0954 101.04 66.9954C100.62 66.7854 100.41 66.4954 100.42 66.1054C100.42 65.9054 100.46 65.7254 100.55 65.6054C100.79 65.2454 101.21 65.0654 101.81 65.0654C102.66 65.0654 103.15 65.3354 103.28 65.8754H103.98C103.75 64.9754 103.03 64.5154 101.82 64.5154C101.27 64.5154 100.78 64.6654 100.38 64.9554C99.97 65.2454 99.76 65.6754 99.76 66.2654C99.75 67.0454 100.39 67.5954 101.65 67.8954Z" fill="#4E3514"/>
<path d="M111.9 70.8254L109.17 64.1654L106.43 70.8254H107.13L107.8 69.1354H110.54L111.21 70.8254H111.9ZM108.04 68.5354L109.18 65.6654L110.31 68.5354H108.04Z" fill="#4E3514"/>
<path d="M115.16 66.2354L118.66 71.2054V64.5954H118.02V69.1754L114.52 64.1954V70.8254H115.16V66.2354Z" fill="#4E3514"/>
<path d="M126.75 70.8254L124.02 64.1654L121.28 70.8254H121.98L122.65 69.1354H125.39L126.06 70.8254H126.75ZM122.89 68.5354L124.03 65.6654L125.16 68.5354H122.89Z" fill="#4E3514"/>
<path d="M130.01 70.1854V64.5954H129.37V70.8254H129.69H130.01H132.24V70.1854H130.01Z" fill="#4E3514"/>
<path d="M138.65 70.8254V70.2254H135.59V68.0054H138.56V67.4054H135.59V65.1854H138.65V64.5954H134.95V70.8254H138.65Z" fill="#4E3514"/>
<path d="M143.59 67.8954C144.4 68.0854 144.95 68.2954 145.24 68.5354C145.44 68.6954 145.54 68.9154 145.54 69.1654C145.54 69.4254 145.49 69.6354 145.38 69.7754C145.11 70.1554 144.61 70.3554 143.91 70.3554C142.94 70.3554 142.39 70.0254 142.27 69.3654H141.52C141.74 70.4154 142.54 70.9454 143.91 70.9454C144.52 70.9454 145.04 70.8154 145.45 70.5454C145.94 70.2254 146.2 69.7454 146.2 69.1254C146.2 68.6154 146 68.2154 145.6 67.9454C145.32 67.7454 144.86 67.5654 144.23 67.3954C143.59 67.2354 143.18 67.0954 142.98 66.9954C142.56 66.7854 142.35 66.4954 142.36 66.1054C142.36 65.9054 142.4 65.7254 142.49 65.6054C142.73 65.2454 143.15 65.0654 143.75 65.0654C144.6 65.0654 145.09 65.3354 145.22 65.8754H145.92C145.69 64.9754 144.97 64.5154 143.76 64.5154C143.21 64.5154 142.72 64.6654 142.32 64.9554C141.91 65.2454 141.7 65.6754 141.7 66.2654C141.68 67.0454 142.33 67.5954 143.59 67.8954Z" fill="#4E3514"/>
</svg>
